# xmcd
#
# Track frame offsets:
#	182
#	13372
#	32575
#	48400
#	68377
#	86747
#	102355
#	122777
#	143892
#	157637
#	171487
#	184572
#	199077
#	215740
#
# Disc length: 3100 seconds
#
# Revision: 6
# Processed by: cddbd v1.5.2PL0 Copyright (c) Steve Scherf et al.
# Submitted via: EZCDAudioConverter 6.0.5.1
#
DISCID=c00c1a0e
DTITLE=Hal Ketchum - The Hits
DYEAR=1996
DGENRE=Country
TTITLE0=Small Town Saturday Night
TTITLE1=Mamma Knows The Highway
TTITLE2=I Know Where Love Lives
TTITLE3=Past The Point Of Rescue
TTITLE4=Someplace Far Away
TTITLE5=Sure Love
TTITLE6=Satisfied Mind
TTITLE7=Hang In There Superman
TTITLE8=Five O'Clock World
TTITLE9=Hearts Are Gonna Roll
TTITLE10=Stay Forever
TTITLE11=I Miss My Mary
TTITLE12=That's What I Get For Losin' You
TTITLE13=Wings Of A Dove
EXTD=
EXTT0=
EXTT1=
EXTT2=
EXTT3=
EXTT4=
EXTT5=
EXTT6=
EXTT7=
EXTT8=
EXTT9=
EXTT10=
EXTT11=
EXTT12=
EXTT13=
PLAYORDER=
